<svg width="137" height="73" viewBox="0 0 137 73" fill="none" xmlns="http://www.w3.org/2000/svg">
<path d="M24.123 72.3633C19.4844 72.3633 16.9453 70.1172 15.4805 64.8438L0.783203 11.5234C0.294922 9.7168 0.00195312 7.95898 0.00195312 6.64062C0.00195312 2.53906 2.78516 0 7.27734 0C11.1348 0 13.4785 2.14844 14.3574 6.34766L24.9043 52.002H25.2949L37.1602 6.5918C38.2832 2.00195 40.627 0 44.7285 0C48.7324 0 51.1738 2.14844 52.248 6.49414L64.1133 52.002H64.5039L75.0508 6.34766C75.9785 2.09961 78.3223 0 82.1797 0C86.6719 0 89.4551 2.53906 89.4551 6.64062C89.4551 7.91016 89.1621 9.66797 88.6738 11.5234L73.9277 64.9414C72.4629 70.1172 69.9238 72.3633 65.3828 72.3633C60.6465 72.3633 58.0586 70.166 56.6426 64.8926L44.9238 23.291H44.4844L32.8145 64.8926C31.3984 70.0684 28.7617 72.3633 24.123 72.3633Z" fill="#AB28B2"/>
<path d="M82.252 72.3633C77.6133 72.3633 74.8789 69.5312 74.8789 64.6973V7.71484C74.8789 2.83203 77.6133 0 82.252 0C86.8906 0 89.625 2.83203 89.625 7.71484V29.5898H121.363V7.71484C121.363 2.83203 124.098 0 128.736 0C133.375 0 136.109 2.83203 136.109 7.71484V64.6973C136.109 69.5312 133.375 72.3633 128.736 72.3633C124.098 72.3633 121.363 69.5312 121.363 64.6973V41.748H89.625V64.6973C89.625 69.5312 86.8906 72.3633 82.252 72.3633Z" fill="#CC2FD4"/>
</svg>
