<svg width="582" height="396" viewBox="0 0 582 396" fill="none" xmlns="http://www.w3.org/2000/svg">
<rect width="582" height="396" fill="#D580DA"/>
<path d="M198.017 273.437C188.464 273.437 183.235 268.807 180.218 257.937L149.949 148.019C148.943 144.295 148.34 140.671 148.34 137.953C148.34 129.498 154.072 124.264 163.323 124.264C171.268 124.264 176.095 128.693 177.905 137.35L199.626 231.464H200.431L224.867 137.853C227.18 128.391 232.007 124.264 240.454 124.264C248.7 124.264 253.728 128.693 255.941 137.652L280.377 231.464H281.181L302.903 137.35C304.813 128.592 309.64 124.264 317.585 124.264C326.836 124.264 332.568 129.498 332.568 137.953C332.568 140.571 331.965 144.194 330.959 148.019L300.59 258.138C297.573 268.807 292.344 273.437 282.992 273.437C273.237 273.437 267.907 268.908 264.991 258.037L240.856 172.277H239.951L215.917 258.037C213.001 268.706 207.57 273.437 198.017 273.437Z" fill="black"/>
<path d="M317.735 273.437C308.182 273.437 302.551 267.599 302.551 257.634V140.168C302.551 130.102 308.182 124.264 317.735 124.264C327.289 124.264 332.92 130.102 332.92 140.168V185.262H398.285V140.168C398.285 130.102 403.916 124.264 413.47 124.264C423.023 124.264 428.655 130.102 428.655 140.168V257.634C428.655 267.599 423.023 273.437 413.47 273.437C403.916 273.437 398.285 267.599 398.285 257.634V210.326H332.92V257.634C332.92 267.599 327.289 273.437 317.735 273.437Z" fill="#221F22"/>
<path d="M176.327 208.594C174.894 208.594 174.109 207.9 173.657 206.269L169.116 189.782C168.965 189.223 168.875 188.68 168.875 188.271C168.875 187.004 169.735 186.218 171.123 186.218C172.314 186.218 173.038 186.883 173.31 188.181L176.568 202.298H176.689L180.354 188.256C180.701 186.837 181.425 186.218 182.692 186.218C183.929 186.218 184.683 186.883 185.015 188.226L188.681 202.298H188.801L192.059 188.181C192.346 186.868 193.07 186.218 194.262 186.218C195.649 186.218 196.509 187.004 196.509 188.271C196.509 188.664 196.419 189.208 196.268 189.782L191.712 206.299C191.26 207.9 190.476 208.594 189.073 208.594C187.61 208.594 186.81 207.915 186.373 206.284L182.752 193.42H182.617L179.012 206.284C178.574 207.885 177.76 208.594 176.327 208.594ZM209.421 208.307C207.988 208.307 207.144 207.432 207.144 205.922V188.89C207.144 187.396 207.988 186.52 209.421 186.52H219.769C221.021 186.52 221.836 187.23 221.836 188.407C221.836 189.585 221.006 190.295 219.769 190.295H211.699V195.534H219.377C220.508 195.534 221.278 196.198 221.278 197.285C221.278 198.372 220.523 199.037 219.377 199.037H211.699V204.533H219.769C221.006 204.533 221.836 205.243 221.836 206.42C221.836 207.597 221.021 208.307 219.769 208.307H209.421ZM234.024 208.594C232.605 208.594 231.716 207.764 231.716 206.45C231.716 206.073 231.821 205.559 232.018 205.001L237.961 188.8C238.594 187.034 239.665 186.218 241.385 186.218C243.164 186.218 244.22 187.004 244.869 188.785L250.842 205.001C251.054 205.59 251.129 205.997 251.129 206.45C251.129 207.703 250.179 208.594 248.851 208.594C247.569 208.594 246.891 208.006 246.483 206.586L245.337 203.143H237.478L236.332 206.541C235.909 207.991 235.231 208.594 234.024 208.594ZM238.474 199.611H244.281L241.4 190.687H241.294L238.474 199.611ZM263.906 208.624C262.487 208.624 261.628 207.749 261.628 206.254V188.89C261.628 187.396 262.472 186.52 263.906 186.52H270.543C275.551 186.52 278.416 189.163 278.416 193.466C278.416 196.183 277.074 198.509 274.675 199.535L277.813 204.971C278.19 205.62 278.296 206.012 278.296 206.541C278.296 207.749 277.33 208.624 276.003 208.624C274.917 208.624 274.419 208.232 273.68 206.903L270.06 200.335H266.183V206.254C266.183 207.749 265.338 208.624 263.906 208.624ZM266.183 197.028H270.105C272.398 197.028 273.74 195.715 273.74 193.556C273.74 191.443 272.322 190.083 270.06 190.083H266.183V197.028ZM291.419 208.594C289.986 208.594 289.141 207.718 289.141 206.224V188.604C289.141 187.094 289.986 186.218 291.419 186.218C292.852 186.218 293.697 187.094 293.697 188.604V195.368H303.502V188.604C303.502 187.094 304.346 186.218 305.779 186.218C307.212 186.218 308.057 187.094 308.057 188.604V206.224C308.057 207.718 307.212 208.594 305.779 208.594C304.346 208.594 303.502 207.718 303.502 206.224V199.128H293.697V206.224C293.697 207.718 292.852 208.594 291.419 208.594ZM329.22 208.669C322.764 208.669 318.721 204.351 318.721 197.421C318.721 190.476 322.764 186.143 329.22 186.143C335.661 186.143 339.718 190.476 339.718 197.421C339.718 204.351 335.661 208.669 329.22 208.669ZM329.22 204.865C332.78 204.865 335.058 201.981 335.058 197.421C335.058 192.846 332.78 189.947 329.22 189.947C325.66 189.947 323.367 192.846 323.367 197.421C323.367 201.981 325.645 204.865 329.22 204.865ZM359.509 208.669C353.928 208.669 350.383 205.408 350.383 200.607V188.604C350.383 187.094 351.228 186.218 352.661 186.218C354.094 186.218 354.939 187.094 354.939 188.604V200.154C354.939 202.948 356.583 204.774 359.509 204.774C362.42 204.774 364.064 202.948 364.064 200.154V188.604C364.064 187.094 364.91 186.218 366.342 186.218C367.775 186.218 368.62 187.094 368.62 188.604V200.607C368.62 205.408 365.075 208.669 359.509 208.669ZM387.943 208.669C383.448 208.669 380.567 206.873 379.692 204.487C379.541 204.095 379.45 203.672 379.45 203.264C379.45 202.056 380.28 201.256 381.457 201.256C382.392 201.256 383.01 201.619 383.553 202.585C384.263 204.246 385.967 205.001 388.049 205.001C390.492 205.001 392.151 203.823 392.151 202.223C392.151 200.789 391.126 199.973 388.395 199.414L386.087 198.961C381.743 198.1 379.616 196.017 379.616 192.771C379.616 188.785 383.086 186.143 387.928 186.143C391.91 186.143 394.912 187.819 395.878 190.657C395.983 190.959 396.043 191.276 396.043 191.669C396.043 192.756 395.259 193.496 394.097 193.496C393.072 193.496 392.438 193.088 391.925 192.152C391.201 190.506 389.799 189.826 387.928 189.826C385.68 189.826 384.187 190.884 384.187 192.484C384.187 193.828 385.228 194.658 387.807 195.172L390.1 195.64C394.716 196.56 396.707 198.418 396.707 201.724C396.707 205.982 393.373 208.669 387.943 208.669ZM409.498 208.307C408.065 208.307 407.221 207.432 407.221 205.922V188.89C407.221 187.396 408.065 186.52 409.498 186.52H419.846C421.098 186.52 421.912 187.23 421.912 188.407C421.912 189.585 421.083 190.295 419.846 190.295H411.776V195.534H419.454C420.585 195.534 421.354 196.198 421.354 197.285C421.354 198.372 420.6 199.037 419.454 199.037H411.776V204.533H419.846C421.083 204.533 421.912 205.243 421.912 206.42C421.912 207.597 421.098 208.307 419.846 208.307H409.498Z" fill="white"/>
<path d="M261.057 306V297.273H266.29V298.21H262.114V301.159H265.898V302.097H262.114V306H261.057ZM268.1 306V297.273H273.367V298.21H269.157V301.159H273.094V302.097H269.157V305.062H273.435V306H268.1ZM275.63 306H274.522L277.726 297.273H278.817L282.022 306H280.914L278.306 298.653H278.238L275.63 306ZM276.039 302.591H280.505V303.528H276.039V302.591ZM281.884 298.21V297.273H288.43V298.21H285.685V306H284.629V298.21H281.884ZM295.788 297.273H296.845V303.051C296.845 303.648 296.704 304.18 296.423 304.649C296.145 305.115 295.751 305.483 295.243 305.753C294.734 306.02 294.137 306.153 293.453 306.153C292.768 306.153 292.172 306.02 291.663 305.753C291.154 305.483 290.76 305.115 290.478 304.649C290.2 304.18 290.061 303.648 290.061 303.051V297.273H291.118V302.966C291.118 303.392 291.211 303.771 291.399 304.104C291.586 304.433 291.853 304.693 292.2 304.884C292.549 305.071 292.967 305.165 293.453 305.165C293.939 305.165 294.356 305.071 294.706 304.884C295.055 304.693 295.322 304.433 295.507 304.104C295.694 303.771 295.788 303.392 295.788 302.966V297.273ZM298.955 306V297.273H301.904C302.586 297.273 303.146 297.389 303.583 297.622C304.021 297.852 304.344 298.169 304.555 298.572C304.765 298.976 304.87 299.435 304.87 299.949C304.87 300.463 304.765 300.919 304.555 301.317C304.344 301.714 304.022 302.027 303.587 302.254C303.153 302.479 302.597 302.591 301.921 302.591H299.535V301.636H301.887C302.353 301.636 302.728 301.568 303.012 301.432C303.299 301.295 303.506 301.102 303.634 300.852C303.765 300.599 303.83 300.298 303.83 299.949C303.83 299.599 303.765 299.294 303.634 299.033C303.504 298.771 303.295 298.57 303.008 298.428C302.721 298.283 302.342 298.21 301.87 298.21H300.012V306H298.955ZM303.063 302.08L305.211 306H303.984L301.87 302.08H303.063ZM306.631 306V297.273H311.898V298.21H307.688V301.159H311.625V302.097H307.688V305.062H311.966V306H306.631ZM316.496 306H313.803V297.273H316.615C317.462 297.273 318.186 297.447 318.789 297.797C319.391 298.143 319.853 298.642 320.174 299.293C320.495 299.94 320.655 300.716 320.655 301.619C320.655 302.528 320.493 303.311 320.169 303.967C319.846 304.621 319.374 305.124 318.755 305.476C318.135 305.825 317.382 306 316.496 306ZM314.86 305.062H316.428C317.15 305.062 317.748 304.923 318.222 304.645C318.696 304.366 319.05 303.97 319.283 303.456C319.516 302.942 319.632 302.33 319.632 301.619C319.632 300.915 319.517 300.308 319.287 299.8C319.057 299.288 318.713 298.896 318.256 298.624C317.799 298.348 317.229 298.21 316.547 298.21H314.86V305.062Z" fill="white"/>
</svg>
