<svg width="323" height="26" viewBox="0 0 323 26" fill="none" xmlns="http://www.w3.org/2000/svg">
<path d="M8.73145 25.4639C6.73193 25.4639 5.65527 24.5068 5.04004 22.2168L0.340332 5.02441C0.135254 4.23828 -0.00146484 3.40088 -0.00146484 2.83691C-0.00146484 1.07666 1.16064 0.0512695 3.0918 0.0512695C4.73242 0.0512695 5.70654 0.939941 6.08252 2.78564L9.15869 17.0898H9.29541L12.8843 2.64893C13.3286 0.854492 14.2686 0.0512695 15.9263 0.0512695C17.5327 0.0512695 18.541 0.922852 18.9512 2.63184L22.5571 17.0898H22.6938L25.77 2.78564C26.146 0.939941 27.1201 0.0512695 28.7607 0.0512695C30.6919 0.0512695 31.854 1.07666 31.854 2.83691C31.854 3.38379 31.7173 4.2041 31.5122 5.02441L26.7954 22.2681C26.1802 24.5068 25.1035 25.4639 23.1553 25.4639C21.1216 25.4639 20.0107 24.5239 19.4126 22.2339L15.9946 9.68994H15.8579L12.4399 22.2339C11.8589 24.4727 10.7139 25.4639 8.73145 25.4639ZM50.8114 25.0879C48.829 25.0879 47.6669 23.8916 47.6669 21.8066V3.7085C47.6669 1.62354 48.829 0.427246 50.8114 0.427246H62.1078C63.7997 0.427246 64.8935 1.3501 64.8935 2.95654C64.8935 4.56299 63.7655 5.48584 62.1078 5.48584H53.9389V10.3906H61.7318C63.2528 10.3906 64.2611 11.2451 64.2611 12.6978C64.2611 14.1504 63.287 15.0049 61.7318 15.0049H53.9389V20.0293H62.1078C63.7655 20.0293 64.8935 20.9521 64.8935 22.5586C64.8935 24.165 63.7997 25.0879 62.1078 25.0879H50.8114ZM83.1673 25.4639C81.1849 25.4639 79.9715 24.3359 79.9715 22.4731C79.9715 21.9434 80.1424 21.1743 80.4158 20.4224L86.4998 3.7085C87.4056 1.19629 88.9266 0.0512695 91.3704 0.0512695C93.951 0.0512695 95.4549 1.14502 96.3948 3.7085L102.53 20.4224C102.821 21.2256 102.94 21.8066 102.94 22.4561C102.94 24.2163 101.624 25.4639 99.7957 25.4639C97.9842 25.4639 97.0442 24.6436 96.4974 22.627L95.66 19.8926H87.2176L86.3802 22.5244C85.782 24.6094 84.8421 25.4639 83.1673 25.4639ZM88.4651 15.1587H94.2928L91.4046 5.65674H91.2679L88.4651 15.1587ZM121.71 25.481C119.727 25.481 118.565 24.2847 118.565 22.2168V3.7085C118.565 1.62354 119.727 0.427246 121.71 0.427246H129.127C135.279 0.427246 138.594 3.46924 138.594 8.56201C138.594 11.4673 137.261 14.0649 134.749 15.3296L137.774 20.4736C138.321 21.3794 138.441 21.8921 138.441 22.627C138.441 24.2847 137.142 25.481 135.313 25.481C133.792 25.481 133.143 24.9512 132.083 23.0371L128.426 16.4575H124.837V22.2168C124.837 24.2847 123.692 25.481 121.71 25.481ZM124.837 12.168H128.511C130.819 12.168 132.186 10.8179 132.186 8.68164C132.186 6.57959 130.733 5.16113 128.494 5.16113H124.837V12.168ZM157.483 25.4639C155.501 25.4639 154.339 24.2847 154.339 22.1997V3.31543C154.339 1.23047 155.501 0.0512695 157.483 0.0512695C159.466 0.0512695 160.611 1.23047 160.611 3.31543V10.1001H170.438V3.31543C170.438 1.23047 171.583 0.0512695 173.565 0.0512695C175.547 0.0512695 176.692 1.23047 176.692 3.31543V22.1997C176.692 24.2847 175.547 25.4639 173.565 25.4639C171.583 25.4639 170.438 24.2847 170.438 22.1997V15.1587H160.611V22.1997C160.611 24.2847 159.466 25.4639 157.483 25.4639ZM204.554 25.5151C197.068 25.5151 192.369 20.6274 192.369 12.7661C192.369 4.90479 197.085 0 204.554 0C212.022 0 216.722 4.90479 216.722 12.7661C216.722 20.6274 212.022 25.5151 204.554 25.5151ZM204.554 20.4224C208.057 20.4224 210.347 17.4487 210.347 12.7661C210.347 8.06641 208.057 5.09277 204.554 5.09277C201.05 5.09277 198.76 8.06641 198.76 12.7661C198.76 17.4487 201.033 20.4224 204.554 20.4224ZM243.011 25.5151C236.585 25.5151 232.381 21.875 232.381 16.3379V3.31543C232.381 1.23047 233.543 0.0512695 235.525 0.0512695C237.508 0.0512695 238.653 1.23047 238.653 3.31543V15.6714C238.653 18.5425 240.208 20.2515 243.011 20.2515C245.796 20.2515 247.351 18.5425 247.351 15.6714V3.31543C247.351 1.23047 248.496 0.0512695 250.479 0.0512695C252.478 0.0512695 253.623 1.23047 253.623 3.31543V16.3379C253.623 21.875 249.419 25.5151 243.011 25.5151ZM279.485 25.5151C274.136 25.5151 270.906 23.4985 269.881 20.9521C269.659 20.4395 269.556 19.9097 269.556 19.397C269.556 17.8247 270.684 16.7651 272.273 16.7651C273.487 16.7651 274.307 17.1924 275.11 18.4229C275.948 19.9609 277.605 20.6104 279.588 20.6104C282.032 20.6104 283.621 19.5166 283.621 18.0127C283.621 16.6455 282.578 15.9448 279.656 15.3809L277.11 14.9023C272.205 13.9795 269.641 11.5698 269.641 7.81006C269.641 3.05908 273.76 0 279.434 0C284.151 0 287.603 1.81152 288.799 4.93896C288.97 5.36621 289.055 5.77637 289.055 6.28906C289.055 7.7417 287.996 8.71582 286.424 8.73291C285.056 8.73291 284.202 8.2373 283.467 7.04102C282.664 5.50293 281.297 4.90479 279.485 4.90479C277.212 4.90479 275.879 5.93018 275.879 7.38281C275.879 8.68164 276.99 9.39941 279.673 9.91211L282.202 10.3906C287.466 11.3989 289.859 13.5352 289.859 17.4146C289.859 22.3706 285.979 25.5151 279.485 25.5151ZM308.508 25.0879C306.526 25.0879 305.364 23.8916 305.364 21.8066V3.7085C305.364 1.62354 306.526 0.427246 308.508 0.427246H319.805C321.497 0.427246 322.591 1.3501 322.591 2.95654C322.591 4.56299 321.463 5.48584 319.805 5.48584H311.636V10.3906H319.429C320.95 10.3906 321.958 11.2451 321.958 12.6978C321.958 14.1504 320.984 15.0049 319.429 15.0049H311.636V20.0293H319.805C321.463 20.0293 322.591 20.9521 322.591 22.5586C322.591 24.165 321.497 25.0879 319.805 25.0879H308.508Z" fill="#AB28B2"/>
</svg>
