<svg width="1054" height="582" viewBox="0 0 1054 582" fill="none" xmlns="http://www.w3.org/2000/svg">
<path d="M416.625 488V459.875H439.125V465.5H444.75V471.125H439.125V482.375H444.75V488H433.5V482.375H427.875V488H416.625ZM427.875 471.125H433.5V465.5H427.875V471.125ZM467.25 488V459.875H489.75V465.5H478.5V471.125H489.75V476.75H478.5V482.375H489.75V488H467.25ZM517.875 488V465.5H512.25V459.875H534.75V465.5H529.125V488H517.875ZM557.25 488V459.875H579.75V465.5H585.375V471.125H579.75V482.375H585.375V488H574.125V482.375H568.5V488H557.25ZM568.5 471.125H574.125V465.5H568.5V471.125ZM613.5 488V482.375H607.875V465.5H613.5V459.875H630.375V465.5H636V482.375H630.375V488H613.5ZM619.125 482.15H624.75V465.725H619.125V482.15Z" fill="white"/>
</svg>
