<svg width="500" height="500" viewBox="0 0 500 500" fill="none" xmlns="http://www.w3.org/2000/svg">
<rect width="500" height="500" fill="white"/>
<path d="M159.371 323.855C150.094 323.855 145.016 319.363 142.086 308.816L112.691 202.176C111.715 198.562 111.129 195.047 111.129 192.41C111.129 184.207 116.695 179.129 125.68 179.129C133.395 179.129 138.082 183.426 139.84 191.824L160.934 283.133H161.715L185.445 192.312C187.691 183.133 192.379 179.129 200.582 179.129C208.59 179.129 213.473 183.426 215.621 192.117L239.352 283.133H240.133L261.227 191.824C263.082 183.328 267.77 179.129 275.484 179.129C284.469 179.129 290.035 184.207 290.035 192.41C290.035 194.949 289.449 198.465 288.473 202.176L258.98 309.012C256.051 319.363 250.973 323.855 241.891 323.855C232.418 323.855 227.242 319.461 224.41 308.914L200.973 225.711H200.094L176.754 308.914C173.922 319.266 168.648 323.855 159.371 323.855Z" fill="#AB28B2"/>
<path d="M275.629 323.855C266.352 323.855 260.883 318.191 260.883 308.523V194.559C260.883 184.793 266.352 179.129 275.629 179.129C284.906 179.129 290.375 184.793 290.375 194.559V238.309H353.852V194.559C353.852 184.793 359.32 179.129 368.598 179.129C377.875 179.129 383.344 184.793 383.344 194.559V308.523C383.344 318.191 377.875 323.855 368.598 323.855C359.32 323.855 353.852 318.191 353.852 308.523V262.625H290.375V308.523C290.375 318.191 284.906 323.855 275.629 323.855Z" fill="#CC2FD4"/>
</svg>
