<svg width="1054" height="582" viewBox="0 0 1054 582" fill="none" xmlns="http://www.w3.org/2000/svg">
<path d="M391.057 371.783C377.141 371.783 369.523 365.045 365.129 349.225L321.037 189.264C319.572 183.844 318.693 178.57 318.693 174.615C318.693 162.311 327.043 154.693 340.52 154.693C352.092 154.693 359.123 161.139 361.76 173.736L393.4 310.699H394.572L430.168 174.469C433.537 160.699 440.568 154.693 452.873 154.693C464.885 154.693 472.209 161.139 475.432 174.176L511.027 310.699H512.199L543.84 173.736C546.623 160.992 553.654 154.693 565.227 154.693C578.703 154.693 587.053 162.311 587.053 174.615C587.053 178.424 586.174 183.697 584.709 189.264L540.471 349.518C536.076 365.045 528.459 371.783 514.836 371.783C500.627 371.783 492.863 365.191 488.615 349.371L453.459 224.566H452.141L417.131 349.371C412.883 364.898 404.973 371.783 391.057 371.783Z" fill="black"/>
<path d="M565.443 371.783C551.527 371.783 543.324 363.287 543.324 348.785V177.838C543.324 163.189 551.527 154.693 565.443 154.693C579.359 154.693 587.562 163.189 587.562 177.838V243.463H682.777V177.838C682.777 163.189 690.98 154.693 704.896 154.693C718.812 154.693 727.016 163.189 727.016 177.838V348.785C727.016 363.287 718.812 371.783 704.896 371.783C690.98 371.783 682.777 363.287 682.777 348.785V279.938H587.562V348.785C587.562 363.287 579.359 371.783 565.443 371.783Z" fill="#221F22"/>
<path d="M359.458 277.417C357.371 277.417 356.229 276.407 355.569 274.034L348.956 250.04C348.736 249.227 348.604 248.436 348.604 247.842C348.604 245.997 349.856 244.854 351.878 244.854C353.614 244.854 354.668 245.821 355.064 247.71L359.81 268.255H359.986L365.325 247.82C365.831 245.755 366.885 244.854 368.731 244.854C370.533 244.854 371.631 245.821 372.115 247.776L377.454 268.255H377.63L382.376 247.71C382.793 245.799 383.848 244.854 385.584 244.854C387.605 244.854 388.858 245.997 388.858 247.842C388.858 248.414 388.726 249.205 388.506 250.04L381.871 274.078C381.211 276.407 380.069 277.417 378.025 277.417C375.894 277.417 374.729 276.429 374.092 274.056L368.819 255.335H368.621L363.37 274.056C362.732 276.385 361.546 277.417 359.458 277.417ZM407.667 277C405.579 277 404.349 275.726 404.349 273.528V248.743C404.349 246.568 405.579 245.293 407.667 245.293H422.74C424.563 245.293 425.75 246.326 425.75 248.04C425.75 249.754 424.542 250.787 422.74 250.787H410.984V258.411H422.168C423.816 258.411 424.937 259.378 424.937 260.96C424.937 262.542 423.838 263.509 422.168 263.509H410.984V271.507H422.74C424.542 271.507 425.75 272.54 425.75 274.253C425.75 275.967 424.563 277 422.74 277H407.667ZM443.504 277.417C441.438 277.417 440.142 276.209 440.142 274.297C440.142 273.748 440.296 273.001 440.582 272.188L449.239 248.611C450.162 246.041 451.722 244.854 454.227 244.854C456.819 244.854 458.357 245.997 459.302 248.589L468.003 272.188C468.311 273.045 468.421 273.638 468.421 274.297C468.421 276.121 467.037 277.417 465.103 277.417C463.235 277.417 462.247 276.561 461.653 274.495L459.983 269.485H448.536L446.866 274.429C446.25 276.539 445.262 277.417 443.504 277.417ZM449.986 264.344H458.445L454.249 251.358H454.095L449.986 264.344ZM487.032 277.461C484.966 277.461 483.714 276.187 483.714 274.012V248.743C483.714 246.568 484.944 245.293 487.032 245.293H496.7C503.995 245.293 508.169 249.139 508.169 255.401C508.169 259.356 506.214 262.74 502.72 264.234L507.291 272.144C507.84 273.089 507.994 273.66 507.994 274.429C507.994 276.187 506.587 277.461 504.654 277.461C503.072 277.461 502.347 276.89 501.27 274.957L495.997 265.398H490.35V274.012C490.35 276.187 489.119 277.461 487.032 277.461ZM490.35 260.586H496.062C499.402 260.586 501.358 258.675 501.358 255.533C501.358 252.457 499.292 250.479 495.997 250.479H490.35V260.586ZM527.11 277.417C525.022 277.417 523.792 276.143 523.792 273.968V248.326C523.792 246.128 525.022 244.854 527.11 244.854C529.197 244.854 530.428 246.128 530.428 248.326V258.169H544.71V248.326C544.71 246.128 545.94 244.854 548.028 244.854C550.115 244.854 551.346 246.128 551.346 248.326V273.968C551.346 276.143 550.115 277.417 548.028 277.417C545.94 277.417 544.71 276.143 544.71 273.968V263.641H530.428V273.968C530.428 276.143 529.197 277.417 527.11 277.417ZM582.173 277.527C572.769 277.527 566.88 271.243 566.88 261.158C566.88 251.05 572.769 244.744 582.173 244.744C591.556 244.744 597.466 251.05 597.466 261.158C597.466 271.243 591.556 277.527 582.173 277.527ZM582.173 271.99C587.359 271.99 590.677 267.793 590.677 261.158C590.677 254.5 587.359 250.281 582.173 250.281C576.988 250.281 573.648 254.5 573.648 261.158C573.648 267.793 576.966 271.99 582.173 271.99ZM626.294 277.527C618.165 277.527 613.001 272.781 613.001 265.794V248.326C613.001 246.128 614.231 244.854 616.319 244.854C618.406 244.854 619.637 246.128 619.637 248.326V265.135C619.637 269.2 622.032 271.858 626.294 271.858C630.535 271.858 632.93 269.2 632.93 265.135V248.326C632.93 246.128 634.161 244.854 636.248 244.854C638.335 244.854 639.566 246.128 639.566 248.326V265.794C639.566 272.781 634.402 277.527 626.294 277.527ZM667.713 277.527C661.165 277.527 656.968 274.913 655.694 271.441C655.474 270.87 655.342 270.254 655.342 269.661C655.342 267.903 656.551 266.739 658.265 266.739C659.627 266.739 660.528 267.266 661.319 268.672C662.352 271.089 664.834 272.188 667.867 272.188C671.426 272.188 673.843 270.474 673.843 268.145C673.843 266.058 672.349 264.871 668.372 264.058L665.01 263.399C658.682 262.146 655.584 259.114 655.584 254.39C655.584 248.589 660.638 244.744 667.691 244.744C673.492 244.744 677.864 247.183 679.271 251.314C679.424 251.753 679.512 252.215 679.512 252.786C679.512 254.368 678.37 255.445 676.678 255.445C675.184 255.445 674.261 254.852 673.514 253.489C672.459 251.094 670.416 250.105 667.691 250.105C664.417 250.105 662.242 251.644 662.242 253.973C662.242 255.928 663.758 257.137 667.515 257.884L670.855 258.565C677.579 259.905 680.479 262.608 680.479 267.42C680.479 273.616 675.623 277.527 667.713 277.527ZM699.112 277C697.024 277 695.794 275.726 695.794 273.528V248.743C695.794 246.568 697.024 245.293 699.112 245.293H714.185C716.009 245.293 717.195 246.326 717.195 248.04C717.195 249.754 715.987 250.787 714.185 250.787H702.43V258.411H713.614C715.262 258.411 716.382 259.378 716.382 260.96C716.382 262.542 715.284 263.509 713.614 263.509H702.43V271.507H714.185C715.987 271.507 717.195 272.54 717.195 274.253C717.195 275.967 716.009 277 714.185 277H699.112Z" fill="white"/>
<path d="M416.625 488V459.875H439.125V465.5H444.75V471.125H439.125V482.375H444.75V488H433.5V482.375H427.875V488H416.625ZM427.875 471.125H433.5V465.5H427.875V471.125ZM467.25 488V459.875H489.75V465.5H478.5V471.125H489.75V476.75H478.5V482.375H489.75V488H467.25ZM517.875 488V465.5H512.25V459.875H534.75V465.5H529.125V488H517.875ZM557.25 488V459.875H579.75V465.5H585.375V471.125H579.75V482.375H585.375V488H574.125V482.375H568.5V488H557.25ZM568.5 471.125H574.125V465.5H568.5V471.125ZM613.5 488V482.375H607.875V465.5H613.5V459.875H630.375V465.5H636V482.375H630.375V488H613.5ZM619.125 482.15H624.75V465.725H619.125V482.15Z" fill="white"/>
</svg>
